<svg width="2560" height="1440" viewBox="0 0 2560 1440" fill="none" xmlns="http://www.w3.org/2000/svg">
<rect width="2560" height="1440" fill="white"/>
<rect y="-0.000244141" width="2560" height="1440" fill="url(#paint0_radial_0_1)"/>
<path d="M342.769 1317.22C335.211 1001.08 182.768 625.997 -386.675 943.87C-440.6 973.972 -436.429 1051.13 -381.055 1078.48L234.127 1382.29C284.616 1407.23 344.115 1373.51 342.769 1317.22Z" fill="#7FEFC6"/>
<path d="M597.824 1585.35C586.22 1536.7 601.454 1485.55 637.787 1451.17L772.952 1323.29C809.284 1288.92 861.196 1276.54 909.132 1290.81L1087.46 1343.93C1135.4 1358.2 1172.08 1396.97 1183.68 1445.62L1226.85 1626.62C1238.45 1675.27 1223.22 1726.42 1186.89 1760.8L1051.72 1888.68C1015.39 1923.06 963.478 1935.44 915.541 1921.16L737.209 1868.04C689.273 1853.77 652.595 1815 640.991 1766.35L597.824 1585.35Z" fill="#4F63F6"/>
<path d="M2425 19.0102C2429.38 -29.3336 2457.35 -72.3971 2499.73 -96.0637L2639.18 -173.936C2686.78 -200.518 2745.19 -198.57 2790.91 -168.876L2897.38 -99.7358C2943.11 -70.0415 2968.64 -17.4787 2963.72 36.8197L2949.3 195.89C2944.92 244.234 2916.95 287.297 2874.57 310.964L2735.11 388.837C2687.51 415.419 2629.11 413.471 2583.38 383.776L2476.92 314.636C2431.19 284.942 2405.66 232.379 2410.58 178.081L2425 19.0102Z" fill="#4F63F6"/>
<path d="M641.096 1239.81C668.666 1221.11 706.471 1234.09 716.733 1265.79L834.235 1628.7C846.929 1667.91 809.403 1704.78 770.425 1691.39L337.237 1542.62C298.26 1529.24 291.304 1477.09 325.41 1453.95L641.096 1239.81Z" fill="#5ECBF7"/>
<ellipse cx="2440.42" cy="1478.89" rx="318.543" ry="435.185" transform="rotate(-122.915 2440.42 1478.89)" fill="#2740F5"/>
<path d="M178.888 692.934C-74.1001 568.592 -369.507 360.841 113.478 340.419C127.477 339.827 140.562 349.195 144.04 362.768L219.948 659.009C226.204 683.423 201.506 704.051 178.888 692.934Z" fill="#ED8097"/>
<path d="M2932.63 1208.47C2843.96 1180.56 2656 1156.91 2381.2 1207.65C2335.8 1216.03 2328.36 1275.66 2369.41 1296.78L2851.65 1544.81C2882.07 1560.46 2918.87 1541.62 2923.96 1507.79L2961.52 1258.15C2964.78 1236.45 2953.56 1215.05 2932.63 1208.47Z" fill="#F4D75F"/>
<path d="M2303.14 1262.56C2196.66 706.796 2601.98 554.656 2817.94 548.058L2303.14 1262.56Z" fill="#4F63F6"/>
<path d="M2556.08 914.139C2411.73 820.519 2290.02 565.872 2733.05 141.689C2754.34 121.304 2788.22 141.207 2780.99 169.783L2597.11 896.527C2592.45 914.94 2572.02 924.474 2556.08 914.139Z" fill="#ED8097"/>
<path d="M5.78064 534.786C17.3747 523.714 35.6253 523.714 47.2193 534.786L259.282 737.304C271.656 749.121 271.656 768.878 259.282 780.695L47.2194 983.213C35.6253 994.285 17.3747 994.285 5.78068 983.213L-206.282 780.696C-218.656 768.878 -218.656 749.121 -206.282 737.304L5.78064 534.786Z" fill="#774BF4"/>
<defs>
<radialGradient id="paint0_radial_0_1" cx="0" cy="0" r="1" gradientUnits="userSpaceOnUse" gradientTransform="translate(1324 345.5) rotate(131.352) scale(1428.07 2538.79)">
<stop offset="0.144716" stop-color="#252A52"/>
<stop offset="0.59114" stop-color="#2C357F"/>
<stop offset="0.915704" stop-color="#252A52" stop-opacity="0.97"/>
<stop offset="1" stop-color="#181B36"/>
<stop offset="1" stop-color="#181B36"/>
</radialGradient>
</defs>
</svg>
