<svg width="2944" height="1887" viewBox="0 0 2944 1887" fill="none" xmlns="http://www.w3.org/2000/svg">
<rect width="2944" height="1887" fill="white"/>
<g filter="url(#filter0_f_0_1)">
<rect width="2944" height="1887" rx="6" fill="url(#paint0_radial_0_1)"/>
</g>
<path d="M567.888 2071.12C556.285 2022.47 571.518 1971.32 607.851 1936.94L743.016 1809.06C779.349 1774.68 831.26 1762.3 879.197 1776.58L1057.53 1829.7C1105.47 1843.97 1142.14 1882.74 1153.75 1931.39L1196.91 2112.39C1208.52 2161.04 1193.28 2212.19 1156.95 2246.57L1021.79 2374.45C985.454 2408.82 933.542 2421.2 885.606 2406.93L707.273 2353.81C659.337 2339.54 622.659 2300.77 611.056 2252.12L567.888 2071.12Z" fill="#4F63F6"/>
<path d="M2809 466.01C2813.38 417.666 2841.35 374.603 2883.73 350.936L3023.18 273.064C3070.78 246.482 3129.19 248.43 3174.91 278.124L3281.38 347.264C3327.11 376.959 3352.64 429.521 3347.72 483.82L3333.3 642.89C3328.92 691.234 3300.95 734.297 3258.57 757.964L3119.11 835.837C3071.51 862.419 3013.11 860.471 2967.38 830.776L2860.92 761.636C2815.19 731.942 2789.66 679.379 2794.58 625.081L2809 466.01Z" fill="#4F63F6"/>
<path d="M750.096 1718.81C777.666 1700.11 815.471 1713.09 825.733 1744.79L943.235 2107.7C955.929 2146.91 918.403 2183.78 879.425 2170.39L446.237 2021.62C407.26 2008.24 400.304 1956.09 434.41 1932.95L750.096 1718.81Z" fill="#5ECBF7"/>
<path d="M73.8878 1322.93C-179.1 1198.59 -474.507 990.841 8.47786 970.419C22.4771 969.827 35.5618 979.195 39.0398 992.768L114.948 1289.01C121.204 1313.42 96.5057 1334.05 73.8878 1322.93Z" fill="#ED8097"/>
<path d="M2940.08 1361.14C2795.73 1267.52 2674.02 1012.87 3117.05 588.689C3138.34 568.304 3172.22 588.207 3164.99 616.783L2981.11 1343.53C2976.45 1361.94 2956.02 1371.47 2940.08 1361.14Z" fill="#ED8097"/>
<path d="M-54.7516 1473.76C-23.8341 1444.24 24.8341 1444.24 55.7515 1473.76L195.418 1607.14C228.416 1638.66 228.416 1691.34 195.418 1722.86L55.7516 1856.24C24.8341 1885.76 -23.8341 1885.76 -54.7515 1856.24L-194.418 1722.86C-227.416 1691.34 -227.416 1638.66 -194.418 1607.14L-54.7516 1473.76Z" fill="#774BF4"/>
<path d="M131.769 1605.22C124.211 1289.08 -28.2321 913.997 -597.675 1231.87C-651.6 1261.97 -647.429 1339.13 -592.055 1366.48L23.1272 1670.29C73.616 1695.23 133.115 1661.51 131.769 1605.22Z" fill="#7FEFC6"/>
<path d="M2668.42 2020.69C2613.7 1753.85 2469.61 1489.54 2219.49 2034.13C2194.32 2088.93 2239.23 2149.05 2299.19 2142.73L2600.1 2111C2645.13 2106.25 2677.52 2065.05 2668.42 2020.69Z" fill="#7FEFC6"/>
<path d="M2705.96 2032.87C2599.49 1477.11 3004.8 1324.97 3220.76 1318.37L2705.96 2032.87Z" fill="#4F63F6"/>
<ellipse cx="2824.42" cy="1925.89" rx="318.543" ry="435.185" transform="rotate(-122.915 2824.42 1925.89)" fill="#2740F5"/>
<path d="M3316.63 1655.47C3227.96 1627.56 3040 1603.91 2765.2 1654.65C2719.8 1663.03 2712.36 1722.66 2753.41 1743.78L3235.65 1991.81C3266.07 2007.46 3302.87 1988.62 3307.96 1954.79L3345.52 1705.15C3348.78 1683.45 3337.56 1662.05 3316.63 1655.47Z" fill="#F4D75F"/>
<defs>
<filter id="filter0_f_0_1" x="-4" y="-4" width="2952" height="1895" filterUnits="userSpaceOnUse" color-interpolation-filters="sRGB">
<feFlood flood-opacity="0" result="BackgroundImageFix"/>
<feBlend mode="normal" in="SourceGraphic" in2="BackgroundImageFix" result="shape"/>
<feGaussianBlur stdDeviation="2" result="effect1_foregroundBlur_0_1"/>
</filter>
<radialGradient id="paint0_radial_0_1" cx="0" cy="0" r="1" gradientUnits="userSpaceOnUse" gradientTransform="translate(1522.6 452.749) rotate(127.682) scale(1775.01 3078.1)">
<stop offset="0.144716" stop-color="#252A52"/>
<stop offset="0.59114" stop-color="#2C357F"/>
<stop offset="0.915704" stop-color="#252A52" stop-opacity="0.97"/>
<stop offset="1" stop-color="#181B36"/>
<stop offset="1" stop-color="#181B36"/>
</radialGradient>
</defs>
</svg>
